# xmcd CD database file
#
# Track frame offsets:
#	150
#	17812
#	37900
#	55390
#	72182
#	91940
#	103807
#	122865
#	140825
#	167917
#	191280
#
# Disc length: 2655 seconds
#
# Revision: 2
# Processed by: cddbd v1.5.2PL0 Copyright (c) Steve Scherf et al.
# Submitted via: CDex 1.51
#
DISCID=990a5d0b
DTITLE=大事MANブラザーズバンド - 夏を待つ理由
DYEAR=1992
DGENRE=ロック
TTITLE0=Say Yah !!
TTITLE1=ゆるぎない幸せのカタチ
TTITLE2=Bye-Love
TTITLE3=砂に消えた恋
TTITLE4=夏を待つ理由
TTITLE5=いなせでいこうよ !!
TTITLE6=今年もお見事ワイハの衆
TTITLE7=下町 MY Favorite Sister
TTITLE8=ちょっとづつ不本意な青春
TTITLE9=人情MAN
TTITLE10=荒波のうた
EXTD=YEAR: 1992
EXTT0=
EXTT1=
EXTT2=
EXTT3=
EXTT4=
EXTT5=
EXTT6=
EXTT7=
EXTT8=
EXTT9=
EXTT10=
PLAYORDER=
